<svg width="22" height="24" viewBox="0 0 22 24" fill="none" xmlns="http://www.w3.org/2000/svg">
<path opacity="0.4" fill-rule="evenodd" clip-rule="evenodd" d="M20.7955 5.2045C21.2348 5.64385 21.2348 6.35616 20.7955 6.7955L16.2955 11.2955C15.8562 11.7348 15.1438 11.7348 14.7045 11.2955C14.2652 10.8562 14.2652 10.1438 14.7045 9.70451L17.284 7.125L2 7.125C1.37868 7.125 0.875 6.62132 0.875 6C0.875 5.37868 1.37868 4.875 2 4.875L17.284 4.875L14.7045 2.29549C14.2652 1.85616 14.2652 1.14384 14.7045 0.704505C15.1438 0.265165 15.8562 0.265165 16.2955 0.704505L20.7955 5.2045Z" fill="#49C6E5"/>
<path fill-rule="evenodd" clip-rule="evenodd" d="M1.20451 18.7955C0.765166 18.3562 0.765166 17.6438 1.20451 17.2045L5.70451 12.7045C6.14385 12.2652 6.85616 12.2652 7.2955 12.7045C7.73484 13.1438 7.73484 13.8562 7.2955 14.2955L4.71599 16.875L20 16.875C20.6213 16.875 21.125 17.3787 21.125 18C21.125 18.6213 20.6213 19.125 20 19.125L4.71599 19.125L7.2955 21.7045C7.73484 22.1438 7.73484 22.8562 7.2955 23.2955C6.85616 23.7348 6.14385 23.7348 5.70451 23.2955L1.20451 18.7955Z" fill="#49C6E5"/>
</svg>
