<svg width="30" height="30" viewBox="0 0 30 30" fill="none" xmlns="http://www.w3.org/2000/svg">
<path opacity="0.4" d="M1.54939 12L28.4506 12C29.9808 12 30.5816 9.97287 29.3085 9.10588L16.7157 0.530626C15.6768 -0.176875 14.3232 -0.176875 13.2843 0.530626L0.691523 9.10588C-0.581646 9.97287 0.0192327 12 1.54939 12Z" fill="#49C6E5"/>
<rect x="6" y="12" width="6" height="12" fill="#49C6E5"/>
<rect x="18" y="12" width="6" height="12" fill="#49C6E5"/>
<path opacity="0.4" d="M26.073 24C26.6412 24 27.1606 24.321 27.4147 24.8292L28.9147 27.8292C29.4133 28.8265 28.6881 30 27.573 30L2.42712 30C1.31204 30 0.586799 28.8265 1.08547 27.8292L2.58547 24.8292C2.83956 24.321 3.35896 24 3.92712 24L26.073 24Z" fill="#49C6E5"/>
</svg>
