<svg width="30" height="32" viewBox="0 0 30 32" fill="none" xmlns="http://www.w3.org/2000/svg">
<path fill-rule="evenodd" clip-rule="evenodd" d="M9.50312 22.5096L5.50623 30.5034C5.22837 31.0591 4.55261 31.2844 3.99689 31.0065C3.44116 30.7286 3.21591 30.0529 3.49377 29.4971L6.98795 22.5088L9.50312 22.5096ZM23.0125 22.5096L26.5062 29.4971C26.7841 30.0529 26.5588 30.7286 26.0031 31.0065C25.4474 31.2844 24.7716 31.0591 24.4938 30.5034L20.4969 22.5096C20.4969 22.5096 22.9175 22.5096 23.0125 22.5096ZM16.125 22.5096V27.0003C16.125 27.6216 15.6213 28.1253 15 28.1253C14.3787 28.1253 13.875 27.6216 13.875 27.0003V22.5096H16.125Z" fill="#49C6E5"/>
<path opacity="0.4" d="M30 19.5C30 21.1569 28.6569 22.5 27 22.5L2.99999 22.5C1.34314 22.5 -7.51197e-06 21.1569 -7.36713e-06 19.5L-5.92465e-06 3C-5.7798e-06 1.34314 1.34314 -5.97913e-07 2.99999 -4.53067e-07L27 1.64508e-06C28.6569 1.78993e-06 30 1.34315 30 3L30 19.5Z" fill="#49C6E5"/>
<path fill-rule="evenodd" clip-rule="evenodd" d="M6.375 7.5C6.375 6.87868 6.87868 6.375 7.5 6.375H22.5C23.1213 6.375 23.625 6.87868 23.625 7.5C23.625 8.12132 23.1213 8.625 22.5 8.625H7.5C6.87868 8.625 6.375 8.12132 6.375 7.5Z" fill="#49C6E5"/>
<path fill-rule="evenodd" clip-rule="evenodd" d="M6.375 15C6.375 14.3787 6.87868 13.875 7.5 13.875H15C15.6213 13.875 16.125 14.3787 16.125 15C16.125 15.6213 15.6213 16.125 15 16.125H7.5C6.87868 16.125 6.375 15.6213 6.375 15Z" fill="#49C6E5"/>
</svg>
