<svg width="30" height="28" viewBox="0 0 30 28" fill="none" xmlns="http://www.w3.org/2000/svg">
<path opacity="0.4" d="M0 6.5C0 3.18629 2.68629 0.5 6 0.5H24C27.3137 0.5 30 3.18629 30 6.5V21.5C30 24.8137 27.3137 27.5 24 27.5H6C2.68629 27.5 0 24.8137 0 21.5V6.5Z" fill="#49C6E5"/>
<path d="M0 6.5H30V12.5H0V6.5Z" fill="#49C6E5"/>
<path fill-rule="evenodd" clip-rule="evenodd" d="M4.875 21.5C4.875 20.8787 5.37868 20.375 6 20.375H9C9.62132 20.375 10.125 20.8787 10.125 21.5C10.125 22.1213 9.62132 22.625 9 22.625H6C5.37868 22.625 4.875 22.1213 4.875 21.5Z" fill="#49C6E5"/>
</svg>
