<svg width="27" height="27" viewBox="0 0 27 27" fill="none" xmlns="http://www.w3.org/2000/svg">
<path opacity="0.4" d="M8.7971 24.75H18.2029C20.8002 24.75 22.9058 22.7407 22.9058 20.2621V14.7747C22.9058 13.9779 23.2375 13.2138 23.8278 12.6504C25.1957 11.3451 25.0179 9.1823 23.4534 8.09653L16.2661 3.10837C14.617 1.96388 12.383 1.96388 10.7339 3.10837L3.54657 8.09653C1.9821 9.1823 1.80428 11.3451 3.17215 12.6504C3.76253 13.2138 4.09421 13.9779 4.09421 14.7747V20.2621C4.09421 22.7407 6.19977 24.75 8.7971 24.75Z" fill="#00BD9D"/>
<path fill-rule="evenodd" clip-rule="evenodd" d="M8.22323 17.6707C8.40522 17.2417 8.90052 17.0415 9.3295 17.2235C11.0649 17.9597 12.3325 18.2845 13.5434 18.2814C14.7535 18.2784 15.9905 17.9479 17.6659 17.2254C18.0938 17.0409 18.5902 17.2382 18.7748 17.6661C18.9593 18.094 18.762 18.5905 18.3341 18.775C16.5628 19.5388 15.0839 19.9651 13.5476 19.9689C12.0121 19.9728 10.5031 19.5544 8.67045 18.777C8.24147 18.595 8.04124 18.0997 8.22323 17.6707Z" fill="#00BD9D"/>
</svg>
